HIERARCHY
ROOT Hips
{
	OFFSET 1.760526 105.769127 -1.111724
	CHANNELS 6 Xposition Yposition Zposition Xrotation Yrotation Zrotation
	JOINT Chest
	{
		OFFSET 0.283234 13.550583 1.567065
		CHANNELS 3 Xrotation Yrotation Zrotation
		JOINT Chest2
		{
			OFFSET -0.948943 21.223274 2.781798
			CHANNELS 3 Xrotation Yrotation Zrotation
			JOINT Chest3
			{
				OFFSET -0.737428 14.892532 -0.699047
				CHANNELS 3 Xrotation Yrotation Zrotation
				JOINT Neck
				{
					OFFSET 0.230111 17.200211 1.648004
					CHANNELS 3 Xrotation Yrotation Zrotation
					JOINT Head
					{
						OFFSET -0.381475 10.336746 1.683367
						CHANNELS 3 Xrotation Yrotation Zrotation
						End Site
						{
							OFFSET -0.378416 10.348343 1.611263
						}
					}
				}
				JOINT LeftCollar
				{
					OFFSET 4.517633 12.883484 3.925693
					CHANNELS 3 Xrotation Yrotation Zrotation
					JOINT LeftUpArm
					{
						OFFSET 14.039058 -5.217209 -9.175243
						CHANNELS 3 Xrotation Yrotation Zrotation
						JOINT LeftLowArm
						{
							OFFSET 5.073431 -33.370789 -0.615650
							CHANNELS 3 Xrotation Yrotation Zrotation
							JOINT LeftHand
							{
								OFFSET -1.495840 -28.043930 10.594701
								CHANNELS 3 Xrotation Yrotation Zrotation
								End Site
								{
									OFFSET -0.326925 -6.129166 2.315538
								}
							}
						}
					}
				}
				JOINT RightCollar
				{
					OFFSET -3.888570 12.956665 4.337359
					CHANNELS 3 Xrotation Yrotation Zrotation
					JOINT RightUpArm
					{
						OFFSET -14.499516 -5.633957 -8.155912
						CHANNELS 3 Xrotation Yrotation Zrotation
						JOINT RightLowArm
						{
							OFFSET -5.444338 -33.235229 -2.348078
							CHANNELS 3 Xrotation Yrotation Zrotation
							JOINT RightHand
							{
								OFFSET 1.423597 -28.411888 9.575647
								CHANNELS 3 Xrotation Yrotation Zrotation
								End Site
								{
									OFFSET 0.311140 -6.209702 2.092849
								}
							}
						}
					}
				}
			}
		}
	}
	JOINT LeftUpLeg
	{
		OFFSET 10.017184 -0.227310 0.153235
		CHANNELS 3 Xrotation Yrotation Zrotation
		JOINT LeftLowLeg
		{
			OFFSET 2.748756 -47.057579 -4.692222
			CHANNELS 3 Xrotation Yrotation Zrotation
			JOINT LeftFoot
			{
				OFFSET -0.604077 -42.833252 -12.865246
				CHANNELS 3 Xrotation Yrotation Zrotation
				JOINT LeftToe
				{
					OFFSET 0.406025 -16.288490 17.148752
					CHANNELS 3 Xrotation Yrotation Zrotation
					End Site
					{
						OFFSET 1.851362 -1.742263 23.517990
					}
				}
			}
		}
	}
	JOINT RightUpLeg
	{
		OFFSET -10.017193 0.227112 -0.153258
		CHANNELS 3 Xrotation Yrotation Zrotation
		JOINT RightLowLeg
		{
			OFFSET -2.223100 -47.268585 2.179592
			CHANNELS 3 Xrotation Yrotation Zrotation
			JOINT RightFoot
			{
				OFFSET -0.496033 -42.325424 -14.453092
				CHANNELS 3 Xrotation Yrotation Zrotation
				JOINT RightToe
				{
					OFFSET -2.012413 -18.038174 15.170078
					CHANNELS 3 Xrotation Yrotation Zrotation
					End Site
					{
						OFFSET -4.212188 -4.257678 22.884180
					}
				}
			}
		}
	}
}
MOTION
Frames: 18
Frame Time: 0.033333
1.760527 105.769135 -1.111723 0.000000 0.000000 0.000000 0.000001 0.000000 -0.000000 0.000000 -0.000000 -0.000000 -0.000001 -0.000000 -0.000000 -0.000001 0.000000 0.000000 -0.000001 -0.000000 0.000000 -0.000001 -0.000000 0.000001 0.000000 -0.000001 0.000001 0.000002 0.000002 -0.000001 0.000001 0.000002 0.000000 -0.000002 -0.000001 0.000000 0.000001 0.000001 -0.000001 0.000002 -0.000001 -0.000001 0.000000 -0.000002 0.000001 -0.000000 -0.000000 -0.000000 0.000001 -0.000000 -0.000000 0.000000 0.000001 0.000000 -0.000001 -0.000000 0.000000 0.000001 0.000000 0.000001 0.000001 0.000000 -0.000000 0.000001 0.000000 -0.000000 -0.000001 0.000000 0.000002 
1.756068 105.773430 -1.111723 0.144288 -0.170209 -0.035233 -0.135328 0.014241 -0.071024 -0.194599 -0.020805 0.040401 0.173932 0.085163 0.054810 0.076447 0.097801 0.007418 0.000000 0.000000 -0.000000 0.042491 -0.372331 -0.007427 -0.016108 -0.050528 -0.070948 0.071076 0.030267 0.213578 0.000000 -0.000004 -0.000000 0.007803 0.078382 0.118565 -0.206657 0.186811 -0.070963 -0.044337 -0.039301 -0.110901 -0.000001 -0.000002 -0.000000 -0.216256 -0.009999 0.013087 0.110694 -0.003736 0.010737 -0.416898 0.125955 0.124971 -0.000001 0.000000 -0.000001 -0.257891 0.021313 0.053625 0.050566 0.030603 -0.031872 -0.207545 0.201136 0.103451 -0.000002 0.000001 0.000001 
1.745645 105.776268 -1.111309 -0.061811 -0.081811 -0.104800 0.392715 -0.030014 -0.036627 -0.544835 0.011670 0.015490 0.203654 0.159230 0.064074 0.217701 0.024268 0.097262 0.000000 -0.000000 0.000000 0.250476 -0.563727 -0.181990 -0.341719 -0.591075 0.103603 -0.016566 -0.201725 0.535203 0.000000 0.000004 0.000000 0.207890 0.244161 0.258180 -0.244186 0.493376 0.021371 -0.486271 0.169825 -0.589475 -0.000001 -0.000002 0.000001 0.111467 -0.031001 0.161403 -0.027335 0.018277 -0.056392 -0.164588 0.202798 0.133271 -0.000001 -0.000000 0.000000 0.021734 0.031430 0.173856 -0.263605 -0.041818 -0.023709 -0.060160 0.209956 0.103980 -0.000001 0.000002 0.000002 
1.737380 105.787117 -1.115046 -0.142580 -0.313903 -0.070014 0.290071 -0.028367 -0.134417 0.793487 0.002235 0.057527 -0.804589 0.088354 0.014245 0.156672 0.045571 0.143850 0.000000 -0.000000 0.000000 0.377915 -0.431489 -0.248769 -0.561300 -0.988423 0.247779 -0.036585 -0.370066 0.708327 0.000005 -0.000002 0.000000 0.357712 0.402702 0.286860 -0.259340 0.756086 0.095380 -0.816105 0.316370 -0.926246 -0.000003 0.000002 0.000000 -0.021399 -0.030878 0.068123 0.434571 -0.011573 -0.022512 -0.526573 0.121060 0.178821 -0.000001 -0.000001 -0.000001 -0.293482 0.060051 0.110767 0.310061 -0.037452 0.002190 -0.096783 0.513500 0.180297 -0.000001 0.000001 0.000001 
1.731913 105.790108 -1.119579 -0.150648 -0.196074 -0.137371 0.415270 -0.042033 -0.024711 0.445863 -0.074689 0.169274 -0.740126 -0.160699 -0.125746 0.566613 0.070504 0.037348 -0.000001 -0.000000 0.000000 0.418876 -0.580941 -0.319623 -0.475409 -0.804662 0.319947 -0.433427 -0.244304 0.560021 0.000001 -0.000001 0.000002 0.331975 0.369915 0.413326 0.004646 0.442079 -0.062602 -1.141977 0.156971 -0.815125 0.000001 0.000002 -0.000000 -0.105935 -0.038029 0.126713 0.557525 -0.123484 -0.037533 -0.532010 0.201388 0.199874 0.000000 0.000000 -0.000001 -0.320185 0.062988 0.145967 0.388833 0.000433 0.082980 -0.325320 0.283552 0.034091 -0.000002 -0.000000 0.000001 
1.723764 105.791908 -1.120328 -0.314731 0.004881 -0.152058 0.849475 -0.041158 0.037520 -0.556401 -0.136535 0.219429 0.099264 -0.285566 -0.281540 0.805429 -0.078911 0.081112 0.000001 0.000000 -0.000000 0.341662 -1.044357 -0.384634 -0.589494 -0.698974 0.500530 -0.629584 -0.040329 0.324544 -0.000000 -0.000004 0.000000 0.165432 -0.040695 0.376714 0.054049 0.160946 -0.021662 -0.624855 -0.050672 -0.632288 0.000000 -0.000002 0.000001 0.055468 0.007749 0.119990 0.791813 -0.176504 0.103040 -0.671581 0.031347 0.108010 0.000000 -0.000000 -0.000001 -0.510721 0.050854 0.162015 1.040487 0.120655 0.144409 -0.547592 0.156455 -0.005629 -0.000001 0.000002 0.000001 
1.711199 105.794228 -1.118579 -0.524632 -0.440243 -0.067407 0.826542 0.000397 -0.214173 -0.013103 -0.051163 0.126877 -0.247111 0.035295 -0.117054 0.736691 -0.162843 0.171877 -0.000001 -0.000000 0.000000 0.388946 -1.224586 -0.271111 -0.718320 -0.826122 0.511467 -0.515732 0.042630 0.341345 -0.000000 -0.000000 0.000001 0.162051 -0.191771 0.236505 0.357271 -0.111249 0.085420 -0.681881 -0.113245 -0.541882 -0.000001 -0.000000 0.000000 0.245630 -0.032477 0.116919 0.819112 -0.224633 0.035852 -0.562454 -0.083438 0.023791 -0.000000 -0.000000 -0.000001 -0.221984 0.051813 0.131148 0.989731 0.222060 -0.068761 -0.790628 0.477234 0.154744 -0.000001 0.000001 0.000001 
1.702477 105.807396 -1.121413 -0.468216 -0.360877 -0.073802 0.597332 0.020110 -0.190229 0.097208 -0.114844 0.184881 0.031337 -0.000888 -0.216414 0.547030 -0.260382 0.201350 -0.000001 -0.000000 0.000000 0.386305 -1.437778 -0.147971 -0.782058 -0.885725 0.472436 -0.447755 -0.139035 0.407826 0.000001 -0.000000 0.000000 0.120090 -0.538127 0.100515 0.161926 0.000949 0.221964 -0.449491 0.169689 -0.685970 -0.000001 -0.000000 -0.000001 0.020932 -0.009171 0.188843 0.972961 -0.260910 0.132627 -0.665053 -0.616121 -0.259503 -0.000000 0.000000 0.000000 -0.657724 0.069901 0.139199 1.310428 0.318228 -0.023177 -0.698231 0.320932 0.128160 -0.000001 -0.000000 0.000000 
1.696436 105.817337 -1.109691 -0.574491 -0.233484 -0.042399 0.659640 0.050505 -0.211425 -0.903600 -0.173017 0.220154 1.208162 -0.379885 -0.288847 0.158841 -0.315293 -0.080057 -0.000001 0.000000 -0.000000 0.023480 -0.780802 -0.170975 -0.852420 -0.507858 0.701563 -0.380502 0.293691 -0.349217 0.000001 -0.000004 0.000001 -0.180620 -0.537245 0.277996 0.647350 -0.842758 0.039462 -0.372220 -0.416438 -0.540930 -0.000001 0.000001 -0.000001 0.103089 -0.061508 0.343545 1.515233 -0.260597 0.116222 -1.320488 -1.771363 -0.725125 -0.000001 -0.000000 -0.000001 -0.630843 0.080556 0.105780 1.705076 0.318573 -0.059566 -1.140974 0.834026 0.244829 -0.000000 -0.000000 0.000000 
1.696246 105.836555 -1.105559 -0.782331 -0.785408 -0.061590 0.696907 0.028132 -0.157579 -0.481406 -0.106994 0.149186 0.510079 0.013266 -0.257399 0.826383 -0.266696 0.067847 0.000001 0.000001 -0.000000 0.241080 -1.256543 -0.091389 -0.951122 -0.846252 0.788505 -0.004871 0.088817 -0.194129 0.000003 -0.000004 0.000001 -0.029444 -0.871704 0.320392 0.745530 -0.656823 0.055896 -0.051032 -0.168573 -1.139623 -0.000001 0.000005 -0.000000 0.053896 -0.006244 0.397073 1.438851 -0.235750 0.010715 -0.838018 -1.916446 -0.850511 -0.000000 0.000000 -0.000000 0.105811 -0.006847 0.082150 1.133170 0.331215 -0.202479 -0.647185 1.277207 0.550445 -0.000001 0.000001 0.000001 
1.694976 105.851120 -1.101466 -0.977429 -0.803782 -0.111604 1.130374 0.012290 -0.121231 -1.316556 -0.180311 0.256456 1.071095 -0.208016 -0.348411 1.151941 -0.067188 -0.084316 0.000000 -0.000000 0.000000 0.141626 -1.025198 0.057951 -0.678547 -0.482881 0.902336 -0.151527 0.298748 -0.805174 -0.000002 -0.000004 0.000001 -0.098668 -0.725245 0.302951 1.016179 -1.024275 0.009311 -0.315086 -0.530859 -1.221104 -0.000002 -0.000004 -0.000000 0.141753 -0.032622 0.555763 1.637038 -0.231227 -0.102274 -0.564705 -2.481101 -1.132832 -0.000000 0.000000 -0.000001 0.330789 -0.012552 0.132098 1.548055 0.392440 -0.231426 -1.131892 1.512891 0.611294 -0.000000 -0.000001 0.000001 
1.702162 105.870842 -1.099080 -1.341133 -0.850945 -0.220114 1.496459 -0.012528 0.050418 -1.500185 -0.211178 0.286948 1.174503 -0.230975 -0.400898 1.753489 -0.106964 -0.189492 0.000001 0.000000 0.000000 0.093936 -1.221352 0.074572 -0.651051 -0.569332 1.114801 -0.273108 -0.039026 -1.063229 0.000003 0.000001 -0.000001 -0.163515 -0.979787 0.311238 1.343185 -1.317405 -0.062716 -0.598086 -0.302709 -1.761723 0.000001 -0.000004 0.000001 0.388126 -0.004121 0.658806 1.527488 -0.178093 -0.099075 -0.495836 -2.893812 -1.339446 -0.000000 0.000000 0.000000 0.249768 -0.029658 0.219759 2.209448 0.457912 -0.306589 -1.392262 1.658651 0.680855 -0.000001 0.000000 0.000001 
1.715681 105.884766 -1.093389 -1.203507 -1.054910 -0.356806 1.163631 0.013322 0.138416 -1.684281 -0.327867 0.392003 1.607392 -0.095758 -0.474917 1.845759 -0.354321 -0.271720 0.000001 -0.000000 0.000000 -0.066824 -1.494284 0.152745 -0.709729 -0.169157 1.192901 -0.356817 0.382659 -1.410511 0.000000 -0.000000 0.000001 -0.440192 -1.415766 0.233193 1.634216 -1.944512 -0.050229 -0.457508 -0.742055 -2.022855 -0.000001 0.000000 0.000001 0.246495 -0.008778 0.775451 1.891159 -0.087589 -0.204613 -1.369073 -3.025203 -1.294687 -0.000001 -0.000000 -0.000001 -0.151539 -0.058428 0.329380 2.180744 0.338052 -0.390056 -1.409566 1.816712 0.685343 -0.000001 -0.000000 0.000001 
1.732486 105.899010 -1.098147 -1.425155 -1.397878 -0.452910 1.377204 0.013085 0.063664 -1.546961 -0.367901 0.466981 1.365985 -0.134987 -0.424416 1.589824 -0.321318 -0.207746 0.000000 -0.000000 0.000000 -0.030237 -1.537611 0.158906 -0.819390 -0.453034 1.290952 -0.411202 0.265355 -1.124412 -0.000000 -0.000004 0.000001 -0.298150 -0.934217 0.332282 1.705230 -1.789502 -0.084842 -1.047651 -0.571698 -2.805577 -0.000001 -0.000002 0.000002 0.474403 -0.005445 0.786865 1.694548 -0.002383 -0.292251 -0.957464 -2.520552 -1.057062 -0.000001 -0.000001 0.000001 -0.151589 -0.027049 0.338276 2.650015 0.394240 -0.415636 -1.421916 2.304081 0.878421 -0.000002 0.000002 0.000001 
1.766778 105.910477 -1.108242 -1.775832 -1.337183 -0.633595 1.400258 -0.006911 0.152391 -0.678407 -0.487208 0.637467 0.727852 -0.404024 -0.477452 1.439214 -0.283211 -0.207632 0.000000 -0.000000 0.000000 -0.017280 -1.358664 0.317493 -0.936630 -0.533496 1.235626 -0.365651 0.339358 -1.129751 0.000000 -0.000004 0.000002 -0.250668 -0.850699 0.592938 1.867635 -1.850557 -0.158591 -1.429982 -0.704504 -4.020768 0.000001 -0.000002 0.000001 0.625737 -0.011833 0.755696 2.294123 -0.130823 -0.169930 -1.271816 -1.964080 -0.783744 0.000000 0.000000 -0.000001 -0.523197 0.017636 0.392787 3.431503 0.508723 -0.290664 -1.596004 2.235669 0.864028 -0.000002 -0.000000 0.000000 
1.805282 105.928001 -1.119502 -2.186702 -1.099009 -0.988840 1.478241 -0.062293 0.331547 -0.660459 -0.635970 0.870264 0.783128 -0.301295 -0.543908 2.150366 -0.534631 0.086156 0.000000 -0.000000 0.000000 0.172250 -1.561435 0.347767 -1.301284 -1.080154 1.296747 -0.367546 0.279430 -0.953082 -0.000000 -0.000001 -0.000000 -0.239354 -1.839201 1.129010 2.080428 -1.682853 -0.266947 -1.686581 -0.800704 -5.826299 0.000001 -0.000002 -0.000000 0.988870 -0.052743 0.937532 2.489281 -0.311465 -0.088172 -1.370766 -1.445924 -0.561418 -0.000001 0.000000 -0.000002 -0.161959 0.038978 0.669887 3.536736 0.629052 -0.129793 -1.552177 1.601305 0.646084 -0.000001 0.000001 0.000000 
1.847805 105.940430 -1.132753 -2.366261 -1.041493 -1.229654 1.307492 -0.074208 0.398730 -0.383890 -0.744030 1.088661 0.775016 -0.647919 -0.662371 2.297378 -0.619223 0.190042 0.000001 -0.000000 0.000000 0.160318 -1.466328 0.309375 -1.303427 -1.195307 1.380950 -0.742126 0.354239 -0.767157 0.000000 -0.000000 0.000000 -0.177034 -1.631260 1.517426 1.950318 -1.481547 -0.170991 -2.207590 -0.998706 -7.421697 -0.000001 0.000001 -0.000000 1.037936 -0.142412 1.035271 2.484491 -0.314579 -0.029624 -1.585064 -1.234908 -0.386540 -0.000001 -0.000000 0.000001 -0.041233 0.090952 0.807689 3.156882 0.579543 0.039810 -1.811657 1.303760 0.562802 -0.000001 -0.000000 0.000001 
1.907479 105.961159 -1.145886 -2.842011 -1.249580 -1.509721 1.740532 -0.091625 0.425986 -0.111494 -0.823487 1.201355 0.280854 -0.489774 -0.533104 2.834865 -0.919123 0.300308 0.000001 0.000000 0.000000 0.114006 -1.404903 0.202800 -1.493998 -1.118272 1.685031 -0.642442 0.723389 -1.052208 0.000003 -0.000004 0.000001 -0.307480 -2.322065 2.171578 1.779730 -1.549892 -0.493962 -2.663694 -1.415912 -9.286119 -0.000001 0.000000 0.000001 1.389939 -0.097046 1.128631 2.556247 -0.273135 -0.119776 -1.675389 -0.703733 -0.098278 -0.000001 0.000000 0.000001 -0.316777 0.054641 0.983374 4.083363 0.609278 -0.009042 -2.074544 1.351351 0.438006 -0.000001 0.000000 0.000002 
